#!OML:ASF F:\VICON\USERDATA\INSTALL\rory3\rory3.ASF
:FULLY-SPECIFIED
:DEGREES
282
root 0.326062 17.7255 2.19289 -2.19041 -43.8314 3.44463
lowerback 6.70262 -0.876124 -2.70595
upperback 1.30379 -1.33224 1.42118
thorax -2.31544 -0.649421 3.10176
lowerneck -22.0729 -4.6201 -9.85404
upperneck 27.408 -5.27862 6.60779
head 13.3787 -2.509 3.30406
rclavicle -1.50579e-014 3.18055e-015
rhumerus -38.0279 -10.4453 -71.3598
rradius 25.607
rwrist 8.11504
rhand -13.7769 9.70549
rfingers 7.12502
rthumb 12.3442 -19.9101
lclavicle -1.50579e-014 3.18055e-015
lhumerus -36.2951 -5.38376 86.7309
lradius 37.0138
lwrist -8.41414
lhand -19.3093 23.4985
lfingers 7.12502
lthumb 7.00655 53.3626
rfemur -25.6969 -2.84758 19.3589
rtibia 24.0997
rfoot -3.90657 -1.4796
rtoes -4.03062
lfemur 19.3939 -6.12699 -25.9682
ltibia 19.1419
lfoot 12.6706 -11.7637
ltoes 0.824988
283
root 0.187312 17.7505 2.30724 -2.17756 -44.002 3.34363
lowerback 6.87063 -0.804228 -2.58037
upperback 1.33411 -1.23111 1.45192
thorax -2.38725 -0.599197 3.05777
lowerneck -22.132 -4.62787 -9.90138
upperneck 27.2061 -5.28399 6.71428
head 13.3125 -2.49678 3.34881
rclavicle -1.6201e-014 -1.03368e-014
rhumerus -38.0943 -10.2915 -71.3466
rradius 25.9011
rwrist 7.73614
rhand -13.8412 9.73642
rfingers 7.12502
rthumb 12.2822 -19.8829
lclavicle -1.6201e-014 -1.03368e-014
lhumerus -36.6339 -5.2272 86.7582
lradius 36.8808
lwrist -8.1854
lhand -18.2311 23.3823
lfingers 7.12502
lthumb 8.0473 53.2091
rfemur -25.1487 -3.25593 19.5541
rtibia 24.2921
rfoot -4.05327 -0.311257
rtoes -3.38702
lfemur 18.2491 -6.05872 -25.8488
ltibia 21.6367
lfoot 14.7842 -11.4593
ltoes 3.50946
284
root 0.0470665 17.7801 2.42534 -2.13771 -44.253 3.21982
lowerback 6.96366 -0.712187 -2.4256
upperback 1.37411 -1.09941 1.46925
thorax -2.40988 -0.534973 2.97856
lowerneck -22.2221 -4.6139 -9.85567
upperneck 27.0701 -5.27269 6.75466
head 13.2731 -2.47698 3.35568
rclavicle 1.963e-014 -2.46493e-014
rhumerus -38.1094 -10.0729 -71.3927
rradius 26.1903
rwrist 7.26935
rhand -13.829 9.63321
rfingers 7.12502
rthumb 12.294 -19.9854
lclavicle 1.963e-014 -2.46493e-014
lhumerus -36.9438 -5.1157 86.7712
lradius 36.7832
lwrist -7.87069
lhand -15.4848 23.8063
lfingers 7.12502
lthumb 10.6972 53.5139
rfemur -24.5376 -3.4479 19.7534
rtibia 24.361
rfoot -3.99429 0.961174
rtoes -1.74783
lfemur 17.05 -5.99369 -25.7607
ltibia 24.2121
lfoot 16.5856 -11.3612
ltoes 4.60489
285
root -0.09207 17.8116 2.54037 -1.81891 -44.4555 2.69744
lowerback 7.11493 -0.668279 -2.03544
upperback 1.37119 -1.01215 1.59567
thorax -2.50789 -0.492749 2.88485
lowerneck -22.2983 -4.54817 -9.73782
upperneck 26.9984 -5.19289 6.7104
head 13.2451 -2.43272 3.33075
rclavicle 3.97569e-016 8.74653e-015
rhumerus -38.0593 -9.76421 -71.4464
rradius 26.402
rwrist 6.92666
rhand -13.6716 9.66137
rfingers 7.12502
rthumb 12.4457 -19.9481
lclavicle 3.97569e-016 8.74653e-015
lhumerus -37.2038 -4.96966 86.848
lradius 36.5149
lwrist -7.56775
lhand -14.1869 24.0993
lfingers 7.12502
lthumb 11.9489 53.7382
rfemur -23.848 -3.88177 20.3896
rtibia 24.2426
rfoot -3.97163 2.02128
rtoes -1.47119
lfemur 15.7534 -5.92071 -25.305
ltibia 26.9055
lfoot 18.3785 -11.4904
ltoes 7.00055
286
root -0.230206 17.8469 2.64716 -1.17895 -44.6166 1.90677
lowerback 7.18049 -0.675989 -1.59624
upperback 1.33139 -0.983964 1.84773
thorax -2.59047 -0.480321 2.89761
lowerneck -22.3467 -4.46955 -9.59549
upperneck 26.84 -5.04135 6.48327
head 13.1622 -2.37836 3.24011
rclavicle -4.37326e-015 3.18055e-015
rhumerus -37.8924 -9.09295 -71.5821
rradius 26.6016
rwrist 6.55393
rhand -13.724 9.65156
rfingers 7.12502
rthumb 12.3952 -19.961
lclavicle -4.37326e-015 3.18055e-015
lhumerus -37.4553 -4.77816 87.009
lradius 36.2473
lwrist -7.32721
lhand -14.3809 24.0545
lfingers 7.12502
lthumb 11.7618 53.7043
rfemur -23.1995 -4.08263 21.2246
rtibia 23.9374
rfoot -3.95929 2.35204
rtoes -2.10604
lfemur 14.1908 -5.89159 -24.5646
ltibia 29.6924
lfoot 20.3948 -11.3905
ltoes 11.2964
